<?xml version="1.0" encoding="utf-8"?>
<!-- Generator: Adobe Illustrator 25.4.1, SVG Export Plug-In . SVG Version: 6.00 Build 0)  -->
<svg version="1.1" id="Capa_1" xmlns="http://www.w3.org/2000/svg" xmlns:xlink="http://www.w3.org/1999/xlink" x="0px" y="0px"
	 viewBox="0 0 120 61" style="enable-background:new 0 0 120 61;" xml:space="preserve">
<style type="text/css">
	.st0{fill:#051A52;}
	.st1{fill:#878B91;}
</style>
<g>
	<g>
		<polygon class="st0" points="103.7,5.9 98.2,0.4 76.4,22.2 98.2,44.1 103.7,38.6 		"/>
	</g>
	<g>
		<polygon class="st1" points="109.1,11.4 109.1,19 112.3,22.3 109.1,25.5 109.1,33.2 120,22.2 		"/>
	</g>
	<g>
		<path class="st0" d="M54.6,5.3c4.1,0,8.1,1,10.9,3.5l-4.5,7.5c-1.3-1.2-3.2-2.3-5.9-2.3c-4.5,0-8,3.1-8,8.1c0,4.9,3.5,8.1,8,8.1
			c2.6,0,4.5-1,5.9-2.3l4.5,7.6c-2.7,2.5-6.8,3.5-10.9,3.5c-10.7,0-17.6-6.9-17.6-16.8C36.9,12.6,43.9,5.3,54.6,5.3"/>
	</g>
	<g>
		<path class="st0" d="M0,5.9v8.3h3.8v12.7c0,2.5-1.6,3.8-3.8,3.8V39c0,0,0.1,0,0.2,0c7.5,0,13.5-3.4,13.5-11.9V5.9
			C13.7,5.9,0,5.9,0,5.9z"/>
	</g>
	<g>
		<path class="st0" d="M19.1,5.9v8.3h3.8v12.7c0,2.5-1.6,3.8-3.8,3.8V39c0,0,0.1,0,0.2,0c7.5,0,13.5-3.4,13.5-11.9V5.9
			C32.7,5.9,19.1,5.9,19.1,5.9z"/>
	</g>
	<g>
		<path class="st1" d="M27.6,60.6c-2.5,0-3.1-2-3.1-3v-5.1c0-1,0.6-3,3.1-3c2.5,0,3.1,1.9,3.1,3h-1.5c0-1.3-1.1-1.5-1.7-1.5
			c-0.6,0-1.7,0.2-1.7,1.5v5.1c0,1.3,1.1,1.6,1.7,1.6c0.5,0,1.7-0.2,1.7-1.6v-1.8h-1.9v-1.5h3.4v3.3C30.7,58.5,30,60.6,27.6,60.6z"
			/>
		<path class="st1" d="M37.8,60.4L35.7,56h-1.4v4.4h-1.5V49.5h3.3c2.5,0,3.1,2,3.1,3V53c0,0.8-0.4,2.3-1.9,2.8l2.2,4.6H37.8z
			 M37.6,52.6c0-1.3-1-1.5-1.6-1.5h-1.8v3.5h1.8c0.6,0,1.6-0.2,1.6-1.5V52.6z"/>
		<path class="st1" d="M44.2,60.6c-2.5,0-3.1-2-3.1-3v-8.1h1.5v8c0,1.3,1.2,1.6,1.7,1.6c0.6,0,1.7-0.2,1.7-1.6v-8h1.5v8
			C47.4,58.6,46.8,60.6,44.2,60.6z"/>
		<path class="st1" d="M52.7,56.3h-1.9v4.2h-1.5V49.5h3.3c2.5,0,3,2,3,3v0.8C55.7,54.3,55.2,56.3,52.7,56.3z M54.2,52.6
			c0-1.3-1-1.5-1.6-1.5h-1.8v3.8h1.8c0.6,0,1.5-0.2,1.5-1.5V52.6z"/>
	</g>
	<g>
		<path class="st1" d="M59.6,60.6c-2.5,0-3.1-2-3.1-3v-5.1c0-1,0.6-3,3.1-3c2.5,0,3.1,2,3.1,3v5.1C62.7,58.5,62.1,60.6,59.6,60.6z
			 M61.2,52.4c0-1.3-1.2-1.5-1.7-1.5c-0.6,0-1.7,0.2-1.7,1.5v5.1c0,1.3,1.1,1.6,1.7,1.6c0.5,0,1.7-0.2,1.7-1.6V52.4z"/>
	</g>
</g>
</svg>
